# xmcd
#
# Track frame offsets:
#	187
#	10597
#	23487
#	37907
#	47797
#	58345
#	73825
#	87752
#	98577
#	111177
#
# Disc length: 1597
#
# Revision: 3
# Processed by: cddbd v1.5.1PL0 Copyright (c) Steve Scherf et al.
# Submitted via: DiscPlay 4.0.4
# Normalized: r1:TDELIM( - ),TSWAP
#
DISCID=74063b0a
DTITLE=Various Country Artists - Country Gold Volume 4
DYEAR=1900
DGENRE=
TTITLE0=Waylon Jennings - White Lightin'
TTITLE1=Patsy Cline - Life's Railway To Heaven
TTITLE2=Ernest Tubb And Conway Twitty - It's Been So Long Darlin'
TTITLE3=Johnny Paycheck - Mr. Lovemaker
TTITLE4=Ferlin Husky - Wings Of A Dove
TTITLE5=Janie Fricke - The Foggy Dew
TTITLE6=Johnny Paycheck - Slide Off Your Satin Sheets
TTITLE7=Ferlin Husky - Gone
TTITLE8=Patsy Cline - Just A Closer Walk With Thee
TTITLE9=Waylon Jennings - Love's Gonna Live Here
EXTD=
EXTT0=
EXTT1=
EXTT2=
EXTT3=
EXTT4=
EXTT5=
EXTT6=
EXTT7=
EXTT8=
EXTT9=
PLAYORDER=
